Coordinates
version=1
nRows=6
nColumns=63
inDegrees=yes

Units are S.I. units (second, meters, Newtons, ...)
If the header above contains a line with 'inDegrees', this indicates whether rotational values are in degrees (yes) or radians (no).

endheader
time	pelvis_tilt	pelvis_list	pelvis_rotation	pelvis_tx	pelvis_ty	pelvis_tz	hip_flexion_r	hip_adduction_r	hip_rotation_r	knee_angle_r	knee_angle_r_beta	ankle_angle_r	subtalar_angle_r	mtp_angle_r	hip_flexion_l	hip_adduction_l	hip_rotation_l	knee_angle_l	knee_angle_l_beta	ankle_angle_l	subtalar_angle_l	mtp_angle_l	L5_S1_Flex_Ext	L5_S1_Lat_Bending	L5_S1_axial_rotation	L4_L5_Flex_Ext	L4_L5_Lat_Bending	L4_L5_axial_rotation	L3_L4_Flex_Ext	L3_L4_Lat_Bending	L3_L4_axial_rotation	L2_L3_Flex_Ext	L2_L3_Lat_Bending	L2_L3_axial_rotation	L1_L2_Flex_Ext	L1_L2_Lat_Bending	L1_L2_axial_rotation	L1_T12_Flex_Ext	L1_T12_Lat_Bending	L1_T12_axial_rotation	Abs_r3	Abs_r2	Abs_r1	Abs_t1	Abs_t2	neck_flexion	neck_bending	neck_rotation	arm_flex_r	arm_add_r	arm_rot_r	elbow_flex_r	pro_sup_r	wrist_flex_r	wrist_dev_r	arm_flex_l	arm_add_l	arm_rot_l	elbow_flex_l	pro_sup_l	wrist_flex_l	wrist_dev_l
5.728814	-1.267954	-3.648870	90.884820	0.140798	0.987521	0.175119	19.246833	-2.389247	-0.724330	24.595679	0.429276	21.416171	-12.299226	0.000000	17.408796	-0.477481	-15.415911	25.413858	0.443556	19.781059	8.508608	0.000000	-0.296807	-0.686844	0.759076	-0.551201	-0.913502	0.806518	-0.487625	-1.669992	0.806518	-0.339221	-1.669992	0.664191	-0.275615	-1.400612	0.616749	-0.169596	-1.063921	0.569307	-2.120064	-7.769716	4.221751	0.000000	0.000000	19.166888	9.916886	-19.606067	5.925417	-8.278627	-2.525494	144.881469	88.391743	-8.440407	-2.740589	10.248995	-16.459784	51.380398	30.466019	83.300722	-11.684735	-0.344595
5.745763	-1.267093	-3.459362	91.201115	0.141368	0.987686	0.174060	18.717585	-2.405244	-1.012308	24.232997	0.422946	21.825113	-11.865337	0.000000	17.112563	-0.535083	-15.599460	25.292618	0.441439	20.047527	9.399621	0.000000	-0.302864	-0.691875	0.849668	-0.562450	-0.920193	0.902773	-0.497576	-1.682224	0.902773	-0.346144	-1.682224	0.743460	-0.281240	-1.410871	0.690356	-0.173057	-1.071714	0.637251	-2.163330	-7.826625	4.725600	0.000000	0.000000	19.151837	9.599194	-19.605477	6.056418	-8.616521	-1.627681	144.991633	88.567350	-8.203396	-2.898662	10.717525	-16.349541	52.560077	30.156907	82.776659	-11.366098	0.093657
5.762712	-1.219738	-3.242057	91.533365	0.141876	0.987909	0.172961	18.126648	-2.381102	-1.343881	23.823059	0.415791	22.157787	-11.446237	0.000000	16.782644	-0.632853	-15.743984	25.171497	0.439326	20.322694	10.219898	0.000000	-0.314657	-0.691266	0.934596	-0.584349	-0.919383	0.993008	-0.516949	-1.680743	0.993008	-0.359621	-1.680743	0.817772	-0.292190	-1.409629	0.759359	-0.179795	-1.070771	0.700947	-2.247560	-7.819736	5.197943	0.000000	0.000000	19.117423	9.295842	-19.538098	6.312735	-9.004277	-0.523001	144.997292	88.743037	-7.850210	-3.493008	11.195956	-16.214883	53.767472	29.857874	82.165570	-10.995441	0.521302
5.779661	-1.135122	-3.002933	91.847566	0.142399	0.988189	0.171803	17.483701	-2.310147	-1.650438	23.354743	0.407617	22.399810	-11.119187	0.000000	16.416727	-0.774948	-15.898301	25.054509	0.437284	20.606949	10.978804	0.000000	-0.329335	-0.686306	1.017975	-0.611608	-0.912786	1.081599	-0.541065	-1.668683	1.081599	-0.376397	-1.668683	0.890728	-0.305821	-1.399514	0.827105	-0.188182	-1.063087	0.763481	-2.352408	-7.763626	5.661672	0.000000	0.000000	19.013756	9.027446	-19.383888	6.672642	-9.428061	0.761271	144.878601	88.899138	-7.462416	-4.514591	11.673324	-16.064990	55.021921	29.584021	81.427158	-10.615818	0.907445
5.796610	-1.021771	-2.770378	92.129818	0.142925	0.988469	0.170573	16.824960	-2.199279	-1.921905	22.827677	0.398418	22.578709	-10.873132	0.000000	16.045613	-0.945772	-16.024322	24.945040	0.435373	20.888916	11.594549	0.000000	-0.339765	-0.676744	1.092216	-0.630978	-0.900070	1.160479	-0.558200	-1.645436	1.160479	-0.388318	-1.645436	0.955689	-0.315506	-1.380017	0.887425	-0.194142	-1.048277	0.819162	-2.426909	-7.655468	6.074576	0.000000	0.000000	18.782151	8.800566	-19.020968	7.129948	-9.886122	2.226462	144.677230	89.033134	-7.135959	-5.564243	12.089058	-15.898320	56.272451	29.336243	80.542104	-10.350195	1.192437
5.813559	-0.873483	-2.537367	92.392756	0.143459	0.988782	0.169310	16.138895	-2.040013	-2.163071	22.219708	0.387807	22.702067	-10.699120	0.000000	15.669729	-1.151481	-16.115074	24.851423	0.433739	21.156867	12.058453	0.000000	-0.347602	-0.663589	1.158175	-0.645532	-0.882573	1.230561	-0.571076	-1.613450	1.230561	-0.397275	-1.613450	1.013403	-0.322784	-1.353190	0.941017	-0.198620	-1.027899	0.868631	-2.482889	-7.506650	6.441423	0.000000	0.000000	18.473971	8.646029	-18.532046	7.635295	-10.344082	3.759592	144.347501	89.144371	-6.865602	-6.898876	12.470813	-15.724121	57.545423	29.111118	79.516421	-10.127674	1.415475
